<svg width="110" height="35" viewBox="0 0 110 35" fill="none" xmlns="http://www.w3.org/2000/svg">
<g filter="url(#filter0_d_147_25)">
<path fill-rule="evenodd" clip-rule="evenodd" d="M111 35C99.402 35 90.4472 24.8033 83.8902 15.2367C77.5841 6.03598 66.9969 0 55 0C43.0031 0 32.4159 6.03598 26.1098 15.2367C19.5528 24.8033 10.598 35 -0.999999 35H-22C-33.598 35 -43 44.402 -43 56V63C-43 74.598 -33.598 84 -22 84H138C149.598 84 159 74.598 159 63V56C159 44.402 149.598 35 138 35H111Z" fill="white"/>
</g>
<defs>
<filter id="filter0_d_147_25" x="-47" y="0" width="210" height="92" filterUnits="userSpaceOnUse" color-interpolation-filters="sRGB">
<feFlood flood-opacity="0" result="BackgroundImageFix"/>
<feColorMatrix in="SourceAlpha" type="matrix" values="0 0 0 0 0 0 0 0 0 0 0 0 0 0 0 0 0 0 127 0" result="hardAlpha"/>
<feOffset dy="4"/>
<feGaussianBlur stdDeviation="2"/>
<feComposite in2="hardAlpha" operator="out"/>
<feColorMatrix type="matrix" values="0 0 0 0 0 0 0 0 0 0 0 0 0 0 0 0 0 0 0.25 0"/>
<feBlend mode="normal" in2="BackgroundImageFix" result="effect1_dropShadow_147_25"/>
<feBlend mode="normal" in="SourceGraphic" in2="effect1_dropShadow_147_25" result="shape"/>
</filter>
</defs>
</svg>
