<svg width="512" height="512" viewBox="0 0 512 512" fill="none" xmlns="http://www.w3.org/2000/svg">
<g clip-path="url(#clip0_256_45)">
<path d="M507.606 371.054C500.382 363.83 492.683 357.297 484.555 351.448C467.239 371.447 446.907 388.256 423.983 401.489C388.475 421.994 348.09 432.941 307.108 433.2C328.87 441.976 352.332 446.58 376.504 446.58C426.028 446.58 472.588 427.294 507.607 392.275C510.42 389.462 512.001 385.647 512.001 381.669C512 377.691 510.419 373.868 507.606 371.054Z" fill="#FFC1B4"/>
<path d="M27.445 351.448C19.317 357.298 11.618 363.831 4.394 371.054C1.581 373.868 0 377.691 0 381.669C0 385.647 1.581 389.462 4.394 392.275C39.413 427.294 85.973 446.58 135.497 446.58C159.669 446.58 183.131 441.976 204.893 433.2C163.908 432.941 123.526 421.994 88.014 401.487C65.092 388.256 44.76 371.447 27.445 351.448V351.448Z" fill="#FFC1B4"/>
<path d="M103.015 375.508C127.952 389.908 156.943 399.564 187.852 402.362C134.443 372.801 105.578 331.76 91.9913 308.227C77.0493 282.349 66.9503 254.31 61.9283 224.806C47.0073 225.446 32.1533 227.674 17.7013 231.515C11.1013 233.091 6.19434 239.032 6.19434 246.114C6.19434 247.426 6.36634 248.732 6.70634 249.999C22.0263 307.141 59.4323 350.349 103.015 375.508Z" fill="#FFC1B4"/>
<path d="M324.148 402.362C355.056 399.563 384.048 389.908 408.985 375.508C452.568 350.349 489.974 307.141 505.295 250C505.635 248.733 505.807 247.427 505.807 246.115C505.807 239.033 500.9 233.092 494.3 231.516C479.848 227.675 464.994 225.446 450.073 224.807C445.051 254.311 434.952 282.35 420.01 308.228C406.422 331.761 377.591 372.782 324.148 402.362V402.362Z" fill="#FFC1B4"/>
<path d="M187.301 366.948C172.144 342.465 148.605 295.468 148.605 231.045C148.605 198.399 154.648 166.644 166.55 136.516C150.156 127.165 132.578 119.893 114.277 114.991C106.273 112.849 98.0524 117.595 95.9074 125.596C79.5354 186.674 91.0824 246.659 117.971 293.227C134.296 321.502 157.74 347.338 187.301 366.948Z" fill="#FFC1B4"/>
<path d="M324.684 366.957C354.252 347.346 377.701 321.506 394.028 293.227C420.917 246.658 432.464 186.674 416.092 125.596C413.947 117.595 405.726 112.848 397.722 114.991C379.418 119.893 361.839 127.167 345.443 136.52C357.343 166.646 363.386 198.4 363.386 231.045C363.387 295.523 339.806 342.533 324.684 366.957Z" fill="#FFC1B4"/>
<path d="M266.606 69.813C263.793 67 259.969 65.4189 255.991 65.4189C252.013 65.4189 248.198 67 245.385 69.813C206.096 109.102 178.605 165.818 178.605 231.044C178.605 296.3 206.127 353.018 245.385 392.275C248.198 395.088 252.022 396.669 256 396.669C259.978 396.669 263.793 395.088 266.606 392.275C305.854 353.028 333.386 296.315 333.386 231.044C333.387 165.788 305.875 109.08 266.606 69.813V69.813Z" fill="#FFC1B4"/>
</g>
<defs>
<clipPath id="clip0_256_45">
<rect width="512" height="512" fill="white"/>
</clipPath>
</defs>
</svg>
