<svg width="90" height="90" viewBox="0 0 90 90" fill="none" xmlns="http://www.w3.org/2000/svg">
<g clip-path="url(#clip0_26_266)">
<path d="M55.5235 59.2897L45 70.478L67.4998 79.174L67.5 79.1739L71.0156 66.5517L67.5 59.2897H55.5235Z" fill="#FF6545"/>
<path d="M79.4765 59.2897H67.5V79.1739L90 70.478L79.4765 59.2897Z" fill="#DD4829"/>
<path d="M63.9353 37.0879C58.4471 37.0879 53.7727 41.0772 52.9105 46.4975L52.4626 49.313L67.5 58.4061L67.5002 58.4059L71.0158 46.3078L67.5002 37.0879H63.9353Z" fill="#FF6545"/>
<path d="M82.0897 46.4972C81.2273 41.077 76.5531 37.0876 71.0648 37.0876H67.5V58.4057L82.5376 49.3127L82.0897 46.4972Z" fill="#DD4829"/>
<path d="M67.4998 77.4163V77.4166C67.4998 77.4165 67.4998 77.4163 67.4998 77.4163C67.4996 74.5047 65.2613 72.0822 62.3586 71.8523L45 70.478V76.2449C45 79.3276 47.4991 81.8266 50.5818 81.8266H67.4996L69.2575 79.6914L67.4996 77.4168C67.4998 77.4166 67.4998 77.4165 67.4998 77.4163Z" fill="#F2BB88"/>
<path d="M72.6411 71.8523C69.7384 72.082 67.5 74.5045 67.4998 77.4163V77.4168V81.8266H84.4182C87.5009 81.8266 90 79.3276 90 76.2449V70.478L72.6411 71.8523Z" fill="#E3A76F"/>
<path d="M67.4998 54.8903C67.4975 51.8095 64.9995 49.3127 61.9181 49.3127H52.4624L51.714 54.0175C51.1747 57.4075 53.7938 60.4764 57.2265 60.4764H67.4998L69.2576 56.9717L67.4998 54.8945C67.4996 54.8931 67.4998 54.8919 67.4998 54.8903Z" fill="#F2BB88"/>
<path d="M67.4998 54.8903C67.4998 54.8917 67.4996 54.8931 67.4996 54.8945V60.4762H67.4998V54.8945C67.4998 54.8931 67.4998 54.8918 67.4998 54.8903Z" fill="#FFC1B4"/>
<path d="M82.5375 49.3127H73.0814C70.0001 49.3127 67.5021 51.8095 67.4996 54.8903C67.4996 54.8917 67.4998 54.8931 67.4998 54.8945V60.4763H77.7735C81.206 60.4763 83.8253 57.4075 83.286 54.0174L82.5375 49.3127Z" fill="#E3A76F"/>
<path d="M67.5 22.1266C63.6469 22.1266 60.5233 19.003 60.5233 15.1499C60.5233 11.2967 63.6469 8.1731 67.5 8.1731L69.2578 15.1499L67.5 22.1266Z" fill="#784132"/>
<path d="M67.5 8.17322C71.3531 8.17322 74.4768 11.2968 74.4768 15.15C74.4768 19.0031 71.3531 22.1267 67.5 22.1267V8.17322Z" fill="#61362B"/>
<path d="M59.4172 29.4236V30.923C59.4172 35.3871 63.036 39.0058 67.5 39.0058L69.2578 32.7726L67.5 26.7354L59.4172 29.4236Z" fill="#F2BB88"/>
<path d="M67.5 26.7355V39.0059C71.964 39.0059 75.5828 35.3871 75.5828 30.9231V27.5631L67.5 26.7355Z" fill="#E3A76F"/>
<path d="M67.5 18.26C63.036 18.26 59.4172 21.8788 59.4172 26.3428V29.4235L67.5 28.4933L69.2578 24.0541L67.5 18.26Z" fill="#915041"/>
<path d="M75.5828 27.5629V26.3428C75.5828 21.8788 71.964 18.26 67.5 18.26V28.4933L75.5828 27.5629Z" fill="#784132"/>
<path d="M10.5235 59.2898L0 70.4781L22.4998 79.1742L22.5 79.174L26.0156 66.5518L22.5 59.2898H10.5235Z" fill="#7198FF"/>
<path d="M34.4765 59.2898H22.5V79.174L45 70.4781L34.4765 59.2898Z" fill="#3B6FF5"/>
<path d="M18.9353 37.088C13.4471 37.088 8.77271 41.0774 7.91051 46.4976L7.46262 49.3131L22.5 58.4062L22.5002 58.4061L26.0158 46.3079L22.5002 37.088H18.9353Z" fill="#7198FF"/>
<path d="M37.0897 46.4973C36.2273 41.0771 31.5531 37.0878 26.0648 37.0878H22.5V58.4058L37.5376 49.3128L37.0897 46.4973Z" fill="#3B6FF5"/>
<path d="M22.4998 77.4164V77.4168C22.4998 77.4166 22.4998 77.4164 22.4998 77.4164C22.4996 74.5048 20.2612 72.0823 17.3586 71.8524L0 70.4781V76.245C0 79.3277 2.49908 81.8268 5.58176 81.8268H22.4996L24.2575 79.6915L22.4996 77.4169C22.4998 77.4168 22.4998 77.4166 22.4998 77.4164Z" fill="#FFCDBE"/>
<path d="M27.6411 71.8524C24.7384 72.0822 22.5 74.5046 22.4998 77.4164V77.4169V81.8268H39.4182C42.5009 81.8268 45 79.3277 45 76.245V70.4781L27.6411 71.8524Z" fill="#FFC1B4"/>
<path d="M22.4998 54.8904C22.4975 51.8097 19.9995 49.3129 16.9181 49.3129H7.46244L6.71397 54.0176C6.17467 57.4076 8.79381 60.4766 12.2265 60.4766H22.4998L24.2576 56.9718L22.4998 54.8946C22.4997 54.8932 22.4998 54.892 22.4998 54.8904Z" fill="#FFCDBE"/>
<path d="M22.4998 54.8904C22.4998 54.8918 22.4997 54.8932 22.4997 54.8946V60.4764H22.4998V54.8946C22.4998 54.8932 22.4998 54.892 22.4998 54.8904Z" fill="#FFC1B4"/>
<path d="M37.5376 49.3129H28.0814C25.0002 49.3129 22.5021 51.8097 22.4997 54.8904C22.4997 54.8918 22.4998 54.8932 22.4998 54.8946V60.4764H32.7736C36.206 60.4764 38.8253 57.4076 38.286 54.0175L37.5376 49.3129Z" fill="#FFC1B4"/>
<path d="M14.4172 26.3428V30.9229C14.4172 35.3871 18.036 39.0057 22.5 39.0057L24.2578 29.4235L22.5 18.26C18.036 18.26 14.4172 21.8788 14.4172 26.3428Z" fill="#FFCDBE"/>
<path d="M22.5 18.26V39.0059C26.964 39.0059 30.5828 35.3871 30.5828 30.9231V26.343C30.5828 21.8788 26.964 18.26 22.5 18.26Z" fill="#FFC1B4"/>
</g>
<defs>
<clipPath id="clip0_26_266">
<rect width="90" height="90" fill="white"/>
</clipPath>
</defs>
</svg>
