<svg width="80" height="80" viewBox="0 0 80 80" fill="none" xmlns="http://www.w3.org/2000/svg">
<g clip-path="url(#clip0_26_216)">
<path d="M18.8102 9.40503L9.405 80H40L43.125 44.7025L40 9.40503H18.8102Z" fill="#FFC1B4"/>
<path d="M59.917 9.40503H40V80H70.595C75.7892 80 80 75.7893 80 70.595C80 50.6771 70.2227 32.6764 59.917 9.40503Z" fill="#FF8B73"/>
<path d="M18.8102 70.595V9.405C18.8102 4.21078 14.5994 0 9.405 0C4.21063 0 0 4.21078 0 9.405V70.5948H18.8102V70.595Z" fill="#FF8B73"/>
<path d="M9.405 79.9999C14.5992 79.9999 18.81 75.7892 18.81 70.5949C18.81 65.4007 14.5992 61.1899 9.405 61.1899C4.21076 61.1899 0 65.4007 0 70.5949C0 75.7892 4.21076 79.9999 9.405 79.9999Z" fill="#D56952"/>
<path d="M80 70.595C80 65.4007 75.7892 61.19 70.595 61.19H59.917V0.165894H70.595C75.7892 0.165894 80 4.37668 80 9.57105V70.595Z" fill="#FFC1B4"/>
</g>
<defs>
<clipPath id="clip0_26_216">
<rect width="80" height="80" fill="white"/>
</clipPath>
</defs>
</svg>
