<svg width="80" height="80" viewBox="0 0 80 80" fill="none" xmlns="http://www.w3.org/2000/svg">
<path d="M50.5458 0H55.3747V4.82891H50.5458V0Z" fill="#FF8B73"/>
<path d="M62.7181 8.95294C59.6577 12.0015 55.437 13.8861 50.7761 13.8861C48.0727 13.8861 45.5181 13.2506 43.2516 12.1233L39.8238 15.5511C43.3278 19.8001 48.6324 22.509 54.5702 22.509C60.5078 22.509 65.8128 19.8006 69.3172 15.5518L62.7181 8.95294Z" fill="#FF8B73"/>
<path d="M39.0339 48.5688C37.9877 47.2483 36.7739 46.0666 35.4235 45.0572C37.2739 42.5877 38.3544 39.508 38.3084 36.1739C38.1992 28.2547 31.648 21.8411 23.7281 21.8919C19.7653 21.9174 16.18 23.5338 13.5792 26.1347L20.4084 32.9639C21.3172 32.0552 22.5864 31.5069 23.9833 31.5522C26.447 31.6319 28.4897 33.6102 28.6424 36.0705C28.8166 38.8771 26.5919 41.2075 23.823 41.2075V50.8652C29.3539 50.8652 33.8078 55.476 33.5508 61.0635C33.3213 66.0525 29.2719 70.1019 24.283 70.3314C18.6955 70.5885 14.0845 66.1346 14.0845 60.6036H4.42657C4.42657 71.316 13.1106 80 23.823 80C30.5789 80 36.5272 76.5452 40 71.3066L41.5625 51.4844L40 48.5688H39.0339Z" fill="#FFAF9E"/>
<path d="M60.1953 33.0736C52.0767 33.0135 45.3894 39.1972 44.65 47.1088C44.5727 47.9361 43.8795 48.5689 43.0487 48.5689H40V71.3067C42.0338 68.2391 43.2194 64.56 43.2194 60.6038C43.2194 59.7991 43.17 59.0058 43.0748 58.2269H44.6981C49.9681 58.2269 54.2402 53.9547 54.2402 48.6849V48.6842C54.2402 45.411 56.9189 42.6697 60.1917 42.7324C63.3633 42.793 65.9156 45.383 65.9156 48.5689V59.6756C65.9156 62.8997 63.302 65.5133 60.078 65.5133V75.1713C68.6359 75.1713 75.5736 68.2336 75.5736 59.6756V48.7635C75.5734 40.2191 68.7392 33.1369 60.1953 33.0736Z" fill="#FF8B73"/>
</svg>
