<svg width="80" height="80" viewBox="0 0 80 80" fill="none" xmlns="http://www.w3.org/2000/svg">
<g clip-path="url(#clip0_26_22)">
<path d="M51.9513 59.3695C51.9513 59.3695 53.3463 61.462 53.5072 61.618C53.6681 61.7737 63.2002 64.8961 63.2002 64.8961L68.8527 65.54L69.2431 64.7578C68.0898 59.6659 65.3512 54.907 61.1395 51.2866H59.758L53.2389 54.7283L51.4739 54.955L51.9513 59.3695Z" fill="#7198FF"/>
<path d="M27.9272 55.493L23.5739 53.098L18.9427 60.2934L17.2847 67.1497V68.3837C17.2847 68.3837 17.8828 68.7447 18.4778 69.1205C22.7491 68.6073 26.9452 66.99 30.622 64.205C30.8712 64.0162 31.1152 63.8233 31.3552 63.6273L31.9139 62.7366L32.4745 55.4931H27.9272V55.493Z" fill="#7198FF"/>
<path d="M62.9913 8.69764L61.0727 7.75311L57.8533 8.6653L49.8841 15.9564L53.1584 24.8291L65.0297 17.5051L65.2817 16.4812C64.8188 13.79 64.0438 11.1801 62.9913 8.69764Z" fill="#FF8B73"/>
<path d="M26.8483 5.5667L25.07 5.23138L20.7841 13.6911L19.1692 19.8554L27.0417 24.8289L31.2005 10.9456V9.7317C29.8663 8.21701 28.4089 6.82467 26.8483 5.5667Z" fill="#FF8B73"/>
<path d="M69.2433 64.7578C63.9022 64.7953 58.5075 63.1385 53.9208 59.6642C53.9183 59.6624 53.9158 59.6605 53.9133 59.6586C53.4452 59.3036 53.1392 58.7752 53.0487 58.1947L52.6289 55.4997L52.4516 54.8297L46.8977 55.5433L48.0883 60.0405L48.647 63.6274C48.887 63.8235 49.1311 64.0163 49.3802 64.205C54.9391 68.4156 61.6848 69.9594 68.0834 69.0491C69.0777 68.9077 69.7777 67.9836 69.6445 66.9881C69.5442 66.2392 69.4102 65.495 69.2433 64.7578Z" fill="#3B6FF5"/>
<path d="M17.9525 66.988C18.6134 62.0456 20.7389 57.3019 24.2278 53.4578L20.2813 51.2866H18.862C14.0406 55.4311 11.1492 61.0678 10.3573 66.988C10.2242 67.9834 10.9241 68.9073 11.9184 69.0489C14.3592 69.3962 16.8505 69.3852 19.3072 69.0064C18.4247 68.7752 17.8288 67.913 17.9525 66.988Z" fill="#3B6FF5"/>
<path d="M37.0352 59.316L37.6891 65.218L40.0009 73.0516L43.0981 76.1581H44.1016C47.0128 72.058 48.7252 67.047 48.7252 61.6356C48.7252 59.6952 48.5045 57.8063 48.088 55.9924L47.8466 55.172L44.5781 52.9681H38.2455L37.0352 59.316Z" fill="#7198FF"/>
<path d="M38.1731 59.954C38.1731 58.0136 38.3937 56.1247 38.8103 54.3108L39.2905 53.4906L39.9236 52.9683H35.0652L32.3941 55.1722L31.9139 55.9925C31.4973 57.8065 31.2767 59.6953 31.2767 61.6358C31.2767 68.6094 34.1192 74.9189 38.7083 79.4697C39.4214 80.1769 40.5805 80.1769 41.2936 79.4697C42.3216 78.4501 43.2612 77.3419 44.1016 76.1583C40.4039 71.7842 38.1731 66.1301 38.1731 59.954Z" fill="#3B6FF5"/>
<path d="M52.2481 14.5981C54.4597 12.3555 56.9322 10.3959 59.6041 8.76078C60.8292 8.01093 62.415 8.31499 63.2869 9.41687C62.5034 7.45 61.5484 5.55843 60.4316 3.76718C59.6842 2.56859 58.0978 2.1939 56.8933 2.93109C53.8848 4.77218 51.1527 7.06249 48.8013 9.73187L48.1686 11.308L50.3653 17.2602C50.8439 16.278 51.4786 15.3783 52.2481 14.5981Z" fill="#FFC1B4"/>
<path d="M25.3389 6.77328C25.7028 6.18953 26.243 5.77969 26.8484 5.56672C25.6591 4.60797 24.4098 3.72735 23.1087 2.9311C21.9041 2.19375 20.3177 2.5686 19.5705 3.76719C17.1667 7.62203 15.5022 11.9372 14.7202 16.4811L15.1306 17.3039L19.992 20.3752C20.9302 15.5216 22.7575 10.913 25.3389 6.77328Z" fill="#FFC1B4"/>
<path d="M73.5208 17.26L60.0108 24.3327L58.8728 28.9156L58.2789 40.4828L52.6487 51.8189L50.6634 54.8295L51.4512 56.1427C51.85 56.067 52.2497 55.958 52.6473 55.8117C59.0764 53.4456 64.8862 49.1883 69.1661 43.1914C74.558 35.6363 76.5472 26.6822 75.4431 18.15L73.5208 17.26Z" fill="#FF9A85"/>
<path d="M12.7644 15.7957L11.2806 16.2307L10.3412 27.586L14.72 42.1461L25.4992 52.9682L31.2766 55.493L33.622 55.2702C34.2906 54.8846 34.9 54.3988 35.4234 53.8289L34.5133 51.6432L30.5964 45.9021L27.8062 35.4164L27.2697 24.9228L26.5005 23.9517C22.5317 20.1397 17.8122 17.3974 12.7644 15.7957Z" fill="#FF9A85"/>
<path d="M18.4816 43.1914C12.7847 35.2087 10.8841 25.6644 12.4195 16.7061C12.4766 16.3734 12.597 16.0673 12.7644 15.7956C11.1173 15.273 9.43547 14.8713 7.73297 14.5941C6.33891 14.3672 5.01219 15.3141 4.77359 16.7061C3.23812 25.6644 5.13875 35.2087 10.8356 43.1914C15.1155 49.1883 20.9252 53.4456 27.3544 55.8117C29.5494 56.6195 31.8066 56.3173 33.6222 55.2702C27.743 52.8225 22.4533 48.7566 18.4816 43.1914Z" fill="#FFC1B4"/>
<path d="M52.9258 54.4973C57.2764 48.115 59.8198 40.4028 59.8198 32.0961C59.8198 31.5941 59.8105 31.0942 59.792 30.5967C59.6959 28.0144 60.8672 25.5473 62.9458 24.0119C66.7255 21.2198 70.9838 19.2519 75.4431 18.15C75.3806 17.6674 75.3103 17.1858 75.2281 16.7063C74.9895 15.3142 73.6627 14.3672 72.2688 14.5942C65.3489 15.7206 58.7652 18.8959 53.5011 23.9519L52.3805 25.1375V36.0991L45.3516 51.8191L44.5781 53.8291C46.2655 55.6658 48.8381 56.6389 51.4511 56.1428C51.9972 55.6758 52.4953 55.1289 52.9258 54.4973Z" fill="#FFC1B4"/>
<path d="M45.2055 4.36377H43.3395L36.9814 15.7956L35.4234 26.5594V34.6881L37.6891 45.7142L42.0744 52.9681C42.0744 52.9681 43.6673 53.2302 45.0963 53.4675C45.7883 52.9402 46.4136 52.2914 46.94 51.5194C51.2906 45.1371 53.8341 37.4249 53.8341 29.1181C53.8341 19.7621 50.6066 11.1605 45.2055 4.36377Z" fill="#FF9A85"/>
<path d="M43.4711 51.5194C39.1205 45.137 36.577 37.4248 36.577 29.1181C36.577 19.762 39.8045 11.1605 45.2056 4.36359C44.2236 3.12781 43.1702 1.95109 42.0508 0.840937C40.92 -0.280313 39.0822 -0.280313 37.9514 0.840937C30.6748 8.05672 26.168 18.0608 26.168 29.1181C26.168 37.4248 28.7116 45.1372 33.062 51.5194C35.8836 55.6586 41.5344 56.2777 45.2056 53.3809C44.5572 52.8694 43.9694 52.2505 43.4711 51.5194Z" fill="#FFC1B4"/>
</g>
<defs>
<clipPath id="clip0_26_22">
<rect width="80" height="80" fill="white"/>
</clipPath>
</defs>
</svg>
