<svg width="96" height="96" viewBox="0 0 96 96" fill="none" xmlns="http://www.w3.org/2000/svg">
<g clip-path="url(#clip0_26_128)">
<path d="M54.9609 6.54094C54.1957 6.16106 53.6282 5.45812 53.4677 4.61906C53.1913 3.17362 52.4812 2.05237 51.5484 1.27612H50.2678L48.2718 5.703C48.2718 5.703 43.7934 8.95444 43.7308 9.051C43.6682 9.14756 42.5092 13.1717 42.5092 13.1717V21.1073H55.797L56.6816 21.8942C58.7553 20.2069 60.0866 17.6378 60.0866 14.772C60.0868 11.1757 57.9913 8.04562 54.9609 6.54094Z" fill="#7B6C79"/>
<path d="M57.7078 35.4373L55.2439 34.8395C53.9912 34.5356 53.0585 33.4865 52.9033 32.2069L52.6879 30.4295L52.1672 29.8159H47.6464L45.7269 36.0774L35.007 38.5884L30.7104 41.3409L27.419 49.5019L22.9357 65.0512V68.8104L26.2194 72.843H27.419C28.0393 72.5085 28.6264 72.0577 29.1547 71.4785L33.3664 71.5061L39.8572 62.0413L47.9149 58.1302L55.5152 49.4859L58.8632 37.4297L57.7078 35.4373Z" fill="#FFC1B4"/>
<path d="M24.0092 66.8855C24.0156 66.7704 24.024 66.6549 24.0343 66.5389C24.4277 62.1474 26.8146 53.2464 29.1246 46.3513C30.2886 42.8771 33.1526 40.2437 36.7133 39.3799L45.3501 37.2845C46.3243 37.0481 46.9176 36.4785 47.352 35.5434C47.5611 35.0934 47.6976 34.613 47.7855 34.1246L48.457 30.3945L49.2446 29.8159H43.8938L43.1061 30.3945L42.8863 32.2069C42.7313 33.4865 41.7984 34.5356 40.5459 34.8395L31.9091 36.9349C28.3504 37.7983 25.4858 40.4285 24.3223 43.9009C22.0118 50.7967 18.3836 62.1463 17.9903 66.5389C17.9799 66.6549 17.9715 66.7704 17.9649 66.8855C17.6734 72.0982 23.2884 75.0709 27.4194 72.8428C25.3577 71.7784 23.8547 69.6465 24.0092 66.8855Z" fill="#FFAF9E"/>
<path d="M36.5 65.7085C35.909 65.1692 35.8668 64.2529 36.4061 63.6619C38.3979 61.4785 39.8216 60.3501 39.8216 57.8561V49.9517C39.8216 48.9319 38.9919 48.1024 37.9723 48.1024C36.9526 48.1024 36.123 48.9321 36.123 49.9517V53.9404C36.123 55.0258 35.6566 56.0608 34.8436 56.7803L28.068 62.7741C27.4687 63.3045 26.5533 63.2479 26.0231 62.649C25.493 62.0498 25.5491 61.1342 26.1483 60.6041L32.9238 54.6103C33.1156 54.4406 33.2255 54.1965 33.2255 53.9406V49.9519C33.2255 47.3346 35.355 45.2051 37.9723 45.2051C40.5896 45.2051 42.719 47.3346 42.719 49.9519V57.8563C42.719 61.5229 40.6803 63.2756 38.5466 65.6147C38.0079 66.2051 37.0916 66.2479 36.5 65.7085Z" fill="#FFAF9E"/>
<path d="M43.0078 14.7722C43.0078 11.1624 45.1188 8.02237 48.167 6.52444C48.9311 6.14887 49.4683 5.433 49.6306 4.59731C49.9096 3.16275 50.6184 2.04975 51.5484 1.27631C50.5385 0.43575 49.2673 0 48 0C45.5518 0 43.1173 1.6095 42.5362 4.59731C42.3736 5.43319 41.8366 6.14906 41.0726 6.52444C38.0242 8.02237 35.9131 11.1626 35.9131 14.7722C35.9131 17.5504 37.1651 20.0486 39.1306 21.7361L39.6682 21.1074H45.5636C43.9837 19.4567 43.0078 17.2237 43.0078 14.7722Z" fill="#665E68"/>
<path d="M75.0735 61.5428C74.4296 56.4362 73.2296 49.1533 71.4635 43.8881C70.2952 40.4051 67.3897 37.7859 63.8195 36.9199L63.5906 36.8644L62.1845 38.4435L59.2871 48.8985L51.5205 57.2766L45.2218 63.5543L36.6986 76.4959L35.0073 85.3757L51.5205 84.3279L70.7107 82.8638L72.9973 80.3481L72.0455 71.8785C74.4873 69.0399 75.5418 65.2581 75.0735 61.5428Z" fill="#FFAA5B"/>
<path d="M37.4941 80.3961C37.5808 77.2554 38.6505 74.2211 40.5525 71.7204L45.5424 65.1596C46.5603 63.8214 47.799 62.6668 49.1985 61.7349C62.024 53.1947 63.7053 42.4348 63.5904 36.8644L57.7078 35.4371C57.5221 40.818 55.2033 52.6108 39.5028 60.1343L29.1549 71.4782L27.8587 82.5201V84.3278L31.3706 85.6063L37.361 85.2263L37.4941 80.3961Z" fill="#FFE7E7"/>
<path d="M58.5446 68.8103C57.7616 68.8103 57.1172 68.1859 57.0971 67.3986C57.0767 66.5987 57.7085 65.9338 58.5084 65.9132C58.9451 65.9021 59.2871 65.5508 59.2871 65.1133V48.8983C59.2871 48.0981 59.9357 47.4497 60.7357 47.4497C61.5358 47.4497 62.1843 48.0983 62.1843 48.8983V65.1133C62.1843 67.1346 60.602 68.7581 58.5823 68.8097C58.5695 68.8101 58.557 68.8103 58.5446 68.8103Z" fill="white"/>
<path d="M62.3521 64.3415C62.2494 64.3477 62.1641 64.4149 62.1221 64.5088C61.7793 65.2755 61.0218 65.817 60.1291 65.8399C57.2469 65.9135 53.3173 65.9409 50.8005 65.9511C49.163 65.9576 47.5466 66.3103 46.0548 66.9859L41.9893 68.8273C40.2813 69.6009 39.444 71.5483 40.0576 73.3202C40.7233 75.2419 42.8379 76.2414 44.7453 75.5359L49.4413 73.7989C49.8071 73.6635 50.1995 73.6155 50.5873 73.659C52.8671 73.9145 61.2684 74.8142 66.5118 74.8142C68.8035 74.8142 70.6421 73.5096 72.045 71.8787C72.2008 71.6975 72.3506 71.5125 72.495 71.3239C71.0739 64.7494 65.4058 64.1584 62.3521 64.3415Z" fill="#FFC1B4"/>
<path d="M47.4187 83.9751L46.1141 83.1484C37.5647 80.7544 39.9857 81.4969 33.4539 79.2808C32.1054 78.8233 30.6302 79.4685 30.0508 80.7694C29.4605 82.0945 29.9985 83.6503 31.2814 84.3278L32.3239 85.9122L37.5007 88.6637L49.4951 95.0389L53.382 95.9998L53.7446 94.5561L47.4187 83.9751Z" fill="#FFC1B4"/>
<path d="M74.6696 80.0494C71.8785 80.5539 68.4711 81.1388 65.1885 81.6227L64.8759 82.9667L66.1069 87.0713L65.3342 90.7896L62.0543 94.9425V96H75.3182C79.6954 96 83.3726 92.6507 83.7133 88.2868C83.7248 88.1413 83.7336 87.9941 83.7398 87.8454C83.9447 82.9599 79.4815 79.1799 74.6696 80.0494Z" fill="#FFCB9E"/>
<path d="M66.8283 87.9782C66.8428 87.7939 66.854 87.6077 66.8619 87.4192C66.953 85.2501 66.3153 83.2543 65.1887 81.6227C61.5661 82.1565 58.0957 82.5671 55.775 82.6093C51.6189 82.6849 48.6991 82.2859 46.9895 81.9411C46.3005 81.8019 45.7683 82.5364 46.1143 83.1484L53.3821 96H62.0542C64.7171 94.2577 66.5643 91.3596 66.8283 87.9782Z" fill="#FFBA7E"/>
<path d="M27.3412 82.2471H26.3162L23.9983 86.7332V90.693L25.4469 93.5259L27.8585 95.1356L30.2653 96H53.3822L27.3412 82.2471Z" fill="#FFBA7E"/>
<path d="M24.6572 88.1527C24.6572 85.8557 25.662 83.7154 27.3412 82.247L25.4434 81.2447C22.7177 79.8052 19.4705 79.7454 16.6937 81.0838C13.979 82.3922 12.2535 85.1394 12.2535 88.1529C12.2535 92.4868 15.7669 96.0002 20.1007 96.0002H32.5044C28.1705 96 24.6572 92.4866 24.6572 88.1527Z" fill="#FFAA5B"/>
<path d="M49.6333 12.3345L47.9151 13.188C47.9151 13.188 45.1534 15.9405 45.0064 16.0854C44.8594 16.2303 44.3282 21.8945 44.3282 21.8945L45.7271 27.2403L48.8434 30.9103L50.6436 31.9112C54.21 30.1142 56.7907 25.0173 56.7907 20.1397C56.7907 14.8121 53.7126 12.7522 49.6333 12.3345Z" fill="#FFC1B4"/>
<path d="M45.156 20.1397C45.156 15.4134 47.5783 13.2581 50.9734 12.5402C50.0199 12.3386 48.9898 12.2501 47.9151 12.2501C43.0132 12.2501 39.0394 14.0859 39.0394 20.1396C39.0394 26.1932 43.0131 32.5881 47.9151 32.5881C48.9898 32.5881 50.0199 32.2804 50.9734 31.7364C47.5783 29.8001 45.156 24.8661 45.156 20.1397Z" fill="#FFAF9E"/>
</g>
<defs>
<clipPath id="clip0_26_128">
<rect width="96" height="96" fill="white"/>
</clipPath>
</defs>
</svg>
