<svg width="80" height="80" viewBox="0 0 80 80" fill="none" xmlns="http://www.w3.org/2000/svg">
<g clip-path="url(#clip0_26_308)">
<path d="M19.1142 0C15.7091 0 12.9484 2.76047 12.9484 6.16578C12.9484 9.57109 15.7089 12.3316 19.1142 12.3316L25.4119 13.8941L26.9744 6.92703L25.4119 0H19.1142Z" fill="#DCE6EB"/>
<path d="M31.7095 0H25.4119V13.8941L31.7095 12.3316C35.1148 12.3316 37.8753 9.57109 37.8753 6.16578C37.8753 2.76047 35.1148 0 31.7095 0Z" fill="#C8D2DC"/>
<path d="M17.2528 12.3315C13.2953 12.3315 10.0872 15.5397 10.0872 19.4973V19.6219C10.0872 23.5794 13.2953 26.7875 17.2528 26.7875L25.4118 28.35L26.9743 18.7084L25.4118 12.3315H17.2528Z" fill="#C8D2DC"/>
<path d="M33.5709 12.3315H25.4119V28.35L33.5709 26.7875C37.5284 26.7875 40.7366 23.5794 40.7366 19.6219V19.4973C40.7367 15.5398 37.5284 12.3315 33.5709 12.3315Z" fill="#A2ABB8"/>
<path d="M14.6691 26.8141C9.56829 26.8141 5.43329 30.9491 5.43329 36.0499V36.4321C5.43329 41.5328 9.56829 45.6678 14.6691 45.6678L25.412 47.2303L26.9745 35.1564L25.412 26.8142H14.6691V26.8141Z" fill="#DCE6EB"/>
<path d="M36.1548 26.8141H25.4119V47.2302L36.1548 45.6677C41.2556 45.6677 45.3906 41.5327 45.3906 36.4319V36.0497C45.3906 30.9491 41.2556 26.8141 36.1548 26.8141Z" fill="#C8D2DC"/>
<path d="M10.532 45.6676C4.71531 45.6676 0 50.3829 0 56.1996V56.7432C0 62.5599 4.71531 67.2753 10.532 67.2753H25.412L26.9745 56.4715L25.412 45.6678H10.532V45.6676Z" fill="#C8D2DC"/>
<path d="M40.2919 45.6676H25.4119V67.2751H40.2919C46.1086 67.2751 50.8239 62.5598 50.8239 56.7431V56.1995C50.8239 50.3829 46.1084 45.6676 40.2919 45.6676Z" fill="#A2ABB8"/>
<path d="M55.0865 80C41.3272 80 30.1731 68.8459 30.1731 55.0865C30.1731 41.3272 41.3272 30.1731 55.0865 30.1731L58.2115 56.4714L55.0865 80Z" fill="#5F5ACF"/>
<path d="M55.0865 30.1731C68.8459 30.1731 80 41.3272 80 55.0865C80 68.8459 68.8459 80 55.0865 80V30.1731Z" fill="#463FC8"/>
<path d="M55.0866 66.222C71.9869 66.222 70.8346 50.474 70.8346 50.474C70.8346 50.474 55.0866 49.3218 55.0866 66.222Z" fill="#A934C4"/>
<path d="M55.0866 66.222C55.0866 49.3217 39.3386 50.474 39.3386 50.474C39.3386 50.474 38.1863 66.222 55.0866 66.222Z" fill="#D261E8"/>
<path d="M55.0866 66.222L56.4939 55.0865L55.0866 43.951C55.0866 43.951 43.1363 54.2717 55.0866 66.222Z" fill="#E991F5"/>
<path d="M55.0866 43.951V66.222C67.0369 54.2717 55.0866 43.951 55.0866 43.951Z" fill="#D261E8"/>
</g>
<defs>
<clipPath id="clip0_26_308">
<rect width="80" height="80" fill="white"/>
</clipPath>
</defs>
</svg>
