<svg width="45" height="46" viewBox="0 0 45 46" fill="none" xmlns="http://www.w3.org/2000/svg">
<g clip-path="url(#clip0_473_552)">
<path d="M44.9999 23.0001L39.9057 17.3442L40.7033 9.77232L33.2542 8.19539L29.4544 1.59448L22.5 4.70266L21.5613 23.0001L22.5 41.2974L29.4545 44.4056L33.2542 37.8048L40.7033 36.2278L39.9057 28.6559L44.9999 23.0001Z" fill="#3B6FF5"/>
<path d="M15.5454 1.59448L11.7457 8.19539L4.29659 9.77241L5.09421 17.3442L0 23.0001L5.09421 28.6559L4.29659 36.2278L11.7457 37.8048L15.5455 44.4056L22.5 41.2974V4.70266L15.5454 1.59448Z" fill="#5B89FF"/>
<path d="M32.3055 18.4063L32.6384 18.0333L32.2654 17.7003L30.2959 15.9424L29.9229 15.6095L29.59 15.9825L22.1269 24.3437L22.0759 24.4009L22.0443 24.4708L21.1056 26.5487L21.008 26.7649L21.1136 26.9773L22.0523 28.8639L22.3812 29.525L22.873 28.9741L32.3055 18.4063Z" fill="#F7F0EB" stroke="white"/>
<path d="M15.0104 20.6584L14.6569 20.3049L14.3033 20.6584L12.4367 22.5251L12.0832 22.8787L12.4367 23.2322L20.2848 31.0804L20.659 31.4546L21.0114 31.0598L22.873 28.9742L23 28.8319V28.6412V24.6767V23.3657L22.127 24.3438L20.5088 26.1567L15.0104 20.6584Z" fill="#FFFBF5" stroke="white"/>
</g>
<defs>
<clipPath id="clip0_473_552">
<rect width="45" height="45" fill="white" transform="translate(0 0.5)"/>
</clipPath>
</defs>
</svg>
