<svg width="1890" height="175" viewBox="0 0 1890 175" fill="none" xmlns="http://www.w3.org/2000/svg">
<path d="M856.278 58.7538H671C671 58.7538 687.087 38.5062 718.753 50.4328C736.411 11.5095 793.502 20.339 808.017 46.2724C835.014 31.7571 856.278 58.7538 856.278 58.7538Z" fill="white"/>
<path opacity="0.52" d="M740.144 174.084H601C601 174.084 613.065 158.875 636.872 167.844C650.139 138.628 692.992 145.238 703.902 164.746C724.149 153.837 740.144 174.084 740.144 174.084Z" fill="white"/>
<path d="M200.441 59.0658H2.178e-05C2.178e-05 59.0658 17.4277 22.7312 59.5407 38.7258C88.5713 -30.9848 159.761 8.21591 172.844 41.6382C194.94 31.0984 200.441 59.0658 200.441 59.0658Z" fill="white"/>
<path opacity="0.52" d="M1171.93 147.509H1048C1048 147.509 1058.77 125.043 1084.8 134.935C1102.78 91.8514 1146.74 116.074 1154.83 136.738C1168.56 130.22 1171.93 147.509 1171.93 147.509Z" fill="white"/>
<path d="M1271.04 27.0859H1187C1187 27.0859 1197.96 11.4148 1215.71 19.2735C1227.73 -8.41662 1262.17 -3.70144 1271.04 27.0859Z" fill="white"/>
<path d="M1889.2 71.5137H1627.74C1627.74 71.5137 1648.08 36.6583 1697.45 55.519C1722.14 6.14834 1774.42 26.4884 1786.07 52.6068C1796.24 1.75688 1815.1 30.8338 1816.58 52.6068C1835.44 30.8338 1889.2 71.5137 1889.2 71.5137Z" fill="white"/>
<path d="M441.461 149.157H180C180 149.157 200.34 114.302 249.711 133.163C274.396 83.792 326.679 104.132 338.328 130.25C348.498 79.4004 367.359 108.477 368.838 130.25C387.745 108.477 441.461 149.157 441.461 149.157Z" fill="white"/>
</svg>
