<svg width="1920" height="232" viewBox="0 0 1920 232" fill="none" xmlns="http://www.w3.org/2000/svg">
<path d="M975 195H1199C1199 195 1179.53 170.504 1141.28 184.971C1119.93 137.89 1050.93 148.569 1033.37 179.956C1000.74 162.35 975 195 975 195Z" fill="white"/>
<path opacity="0.52" d="M1500.6 172.928H1639.92C1639.92 172.928 1627.84 157.701 1604 166.68C1590.72 137.429 1547.81 144.047 1536.89 163.579C1516.57 152.609 1500.6 172.928 1500.6 172.928Z" fill="white"/>
<path d="M1709.56 59.6255H1910.25C1910.25 59.6255 1892.8 23.247 1850.64 39.261C1821.57 -30.534 1750.29 8.71413 1737.2 42.1768C1715.07 31.6706 1709.56 59.6255 1709.56 59.6255Z" fill="white"/>
<path opacity="0.52" d="M304.919 98.8949H429.004C429.004 98.8949 418.22 76.4019 392.163 86.3059C374.159 43.1701 330.144 67.4229 322.044 88.1109C308.344 81.5849 304.919 98.8949 304.919 98.8949Z" fill="white"/>
<path d="M620 232H733C733 232 718.262 210.996 694.385 221.498C678.285 184.379 631.954 190.686 620 232Z" fill="white"/>
<path d="M3 205H186C186 205 171.764 180.609 137.209 193.807C119.931 159.258 83.3375 173.492 75.1841 191.769C68.0659 156.185 54.8651 176.533 53.8297 191.769C40.6289 176.533 3 205 3 205Z" fill="white"/>
</svg>
