<svg width="1920" height="163" viewBox="0 0 1920 163" fill="none" xmlns="http://www.w3.org/2000/svg">
<path d="M111.592 62.0831C144.09 66.7819 144.09 44.8866 174.646 71.6521C205.203 98.4177 235.759 96.4761 235.759 96.4761C235.759 96.4761 298.812 86.9071 348.46 115.568C398.108 144.229 407.677 103.321 476.464 107.157C545.25 110.994 701.992 122.333 747.85 122.333C793.707 122.333 803.151 141.425 854.694 120.438C906.284 99.4047 885.251 95.6142 975.07 91.7773C1064.84 87.9404 1196.68 90.7439 1311.28 77.3843C1425.92 64.0246 1450.93 70.1252 1607.74 96.4284C1664.46 105.951 1732.64 111.545 1799.86 98.6473C1834.48 91.9905 1875.07 95.2727 1919.95 105.859V162.116L-0.00012207 161.116V0C41.8355 4.43781 83.2551 75.4427 111.592 62.0831Z" fill="white"/>
<path d="M804.309 131.123C804.309 131.123 817.53 124.79 818.084 115.267C812.815 115.775 803.292 125.298 803.292 125.298C803.292 125.298 808.053 112.586 799.039 105.189C797.976 113.14 801.443 124.882 801.443 124.882C801.443 124.882 799.178 121.369 793.769 119.751C794.971 123.68 797.513 127.794 804.309 131.123Z" fill="white"/>
<path d="M1765.14 104.792C1765.14 104.792 1789.04 93.3274 1789.96 76.1309C1780.4 77.1017 1763.2 94.2981 1763.2 94.2981C1763.2 94.2981 1771.8 71.3694 1755.57 58.0098C1753.68 72.3402 1759.92 93.5585 1759.92 93.5585C1759.92 93.5585 1755.8 87.2254 1746.05 84.313C1748.27 91.3396 1752.84 98.7821 1765.14 104.792Z" fill="white"/>
<path d="M470.561 107.84C470.561 107.84 480.315 107.193 481.886 98.7332C480.315 94.6652 474.952 103.448 474.952 103.448C474.952 103.448 473.057 88.3783 464.597 82.6924C469.312 95.5898 472.456 103.448 472.456 103.448C472.456 103.448 465.522 93.3708 457.386 92.7699C459.882 100.906 470.561 107.84 470.561 107.84Z" fill="white"/>
<path d="M1495.27 79.9342C1495.27 79.9342 1505.02 79.287 1506.59 70.8275C1505.02 66.7595 1499.66 75.5426 1499.66 75.5426C1499.66 75.5426 1497.76 60.4726 1489.3 54.7866C1494.02 67.684 1497.16 75.5426 1497.16 75.5426C1497.16 75.5426 1490.23 65.4651 1482.09 64.8641C1484.59 73.0001 1495.27 79.9342 1495.27 79.9342Z" fill="white"/>
<path d="M159.625 60.5155L173.539 44.5208C168.408 43.5038 158.608 55.3379 158.608 55.3379C158.608 55.3379 162.722 44.0123 151.905 30.0979C148.253 43.5038 159.625 60.5155 159.625 60.5155Z" fill="white"/>
<path d="M291.557 12.1064V98.4588" stroke="white" stroke-width="3.1879" stroke-miterlimit="10" stroke-linecap="round"/>
<path d="M316.982 16.729C316.982 29.7651 312.128 35.4511 292.62 34.5728" stroke="white" stroke-width="3.1879" stroke-miterlimit="10" stroke-linecap="round"/>
<path d="M265.716 34.8047C265.716 47.8408 270.57 53.5268 290.078 52.6485" stroke="white" stroke-width="3.1879" stroke-miterlimit="10" stroke-linecap="round"/>
<path d="M1082.74 5.15674V91.5091" stroke="white" stroke-width="3.1879" stroke-miterlimit="10" stroke-linecap="round"/>
<path d="M1108.16 9.7793C1108.16 22.8154 1103.31 28.5012 1083.8 27.6229" stroke="white" stroke-width="3.1879" stroke-miterlimit="10" stroke-linecap="round"/>
<path d="M1056.89 27.855C1056.89 40.891 1061.75 46.5771 1081.26 45.6987" stroke="white" stroke-width="3.1879" stroke-miterlimit="10" stroke-linecap="round"/>
<path d="M1905.26 18.6519V105.004" stroke="white" stroke-width="3.1879" stroke-miterlimit="10" stroke-linecap="round"/>
<path d="M1930.68 23.2747C1930.68 36.3107 1925.83 41.9966 1906.32 41.1183" stroke="white" stroke-width="3.1879" stroke-miterlimit="10" stroke-linecap="round"/>
<path d="M1879.41 41.3501C1879.41 54.3862 1884.27 60.0722 1903.78 59.1939" stroke="white" stroke-width="3.1879" stroke-miterlimit="10" stroke-linecap="round"/>
</svg>
