<svg width="1920" height="137" viewBox="0 0 1920 137" fill="none" xmlns="http://www.w3.org/2000/svg">
<path d="M111.593 62.0831C144.09 66.7819 144.09 44.8866 174.646 71.6521C205.203 98.4177 235.759 96.4761 235.759 96.4761C235.759 96.4761 298.813 86.9071 348.461 115.568C398.109 144.229 407.678 103.321 476.464 107.157C545.25 110.994 701.993 122.333 747.85 122.333C793.707 122.333 803.151 141.425 854.695 120.438C906.284 99.4047 885.251 95.6142 975.07 91.7773C1064.84 87.9404 1196.68 90.7439 1311.28 77.3843C1425.92 64.0246 1450.93 70.1252 1607.74 96.4284C1664.46 105.951 1732.64 111.545 1799.86 98.6473C1834.48 91.9905 1875.07 95.2727 1919.95 105.859V136.116L0 135.116V0C41.8356 4.43781 83.2553 75.4427 111.593 62.0831Z" fill="white"/>
<path d="M804.309 131.122C804.309 131.122 817.53 124.789 818.084 115.267C812.815 115.775 803.292 125.298 803.292 125.298C803.292 125.298 808.053 112.585 799.039 105.189C797.975 113.14 801.443 124.882 801.443 124.882C801.443 124.882 799.177 121.368 793.769 119.75C794.971 123.68 797.513 127.794 804.309 131.122Z" fill="white"/>
<path d="M1765.14 104.792C1765.14 104.792 1789.04 93.3274 1789.96 76.1309C1780.4 77.1017 1763.2 94.2981 1763.2 94.2981C1763.2 94.2981 1771.8 71.3694 1755.57 58.0098C1753.68 72.3402 1759.92 93.5585 1759.92 93.5585C1759.92 93.5585 1755.8 87.2254 1746.05 84.313C1748.27 91.3396 1752.84 98.7821 1765.14 104.792Z" fill="white"/>
<path d="M470.56 107.84C470.56 107.84 480.314 107.193 481.886 98.7332C480.314 94.6652 474.952 103.448 474.952 103.448C474.952 103.448 473.057 88.3783 464.597 82.6924C469.312 95.5898 472.456 103.448 472.456 103.448C472.456 103.448 465.522 93.3708 457.386 92.7699C459.882 100.906 470.56 107.84 470.56 107.84Z" fill="white"/>
<path d="M1495.27 79.9337C1495.27 79.9337 1505.02 79.2865 1506.59 70.827C1505.02 66.759 1499.66 75.5421 1499.66 75.5421C1499.66 75.5421 1497.76 60.4721 1489.3 54.7861C1494.02 67.6835 1497.16 75.5421 1497.16 75.5421C1497.16 75.5421 1490.23 65.4646 1482.09 64.8636C1484.59 72.9996 1495.27 79.9337 1495.27 79.9337Z" fill="white"/>
<path d="M159.624 60.5152L173.539 44.5205C168.407 43.5035 158.607 55.3377 158.607 55.3377C158.607 55.3377 162.722 44.012 151.904 30.0977C148.252 43.5035 159.624 60.5152 159.624 60.5152Z" fill="white"/>
<path d="M291.557 12.1064V98.4588" stroke="white" stroke-width="3.1879" stroke-miterlimit="10" stroke-linecap="round"/>
<path d="M316.982 16.729C316.982 29.7651 312.128 35.4511 292.62 34.5728" stroke="white" stroke-width="3.1879" stroke-miterlimit="10" stroke-linecap="round"/>
<path d="M265.716 34.8047C265.716 47.8408 270.57 53.5268 290.078 52.6485" stroke="white" stroke-width="3.1879" stroke-miterlimit="10" stroke-linecap="round"/>
<path d="M1082.74 5.15674V91.5091" stroke="white" stroke-width="3.1879" stroke-miterlimit="10" stroke-linecap="round"/>
<path d="M1108.16 9.7793C1108.16 22.8154 1103.31 28.5012 1083.8 27.6229" stroke="white" stroke-width="3.1879" stroke-miterlimit="10" stroke-linecap="round"/>
<path d="M1056.89 27.855C1056.89 40.891 1061.75 46.5771 1081.26 45.6987" stroke="white" stroke-width="3.1879" stroke-miterlimit="10" stroke-linecap="round"/>
<path d="M1885.26 18.6519V105.004" stroke="white" stroke-width="3.1879" stroke-miterlimit="10" stroke-linecap="round"/>
<path d="M1910.68 23.2744C1910.68 36.3105 1905.83 41.9964 1886.32 41.118" stroke="white" stroke-width="3.1879" stroke-miterlimit="10" stroke-linecap="round"/>
<path d="M1859.41 41.3501C1859.41 54.3862 1864.27 60.0722 1883.78 59.1939" stroke="white" stroke-width="3.1879" stroke-miterlimit="10" stroke-linecap="round"/>
</svg>
