<svg width="545" height="189" viewBox="0 0 545 189" fill="none" xmlns="http://www.w3.org/2000/svg">
<g opacity="0.1">
<path d="M5.36823 9.23233C7.91767 9.23233 9.98428 7.1656 9.98428 4.61616C9.98428 2.06673 7.91767 0 5.36823 0C2.8188 0 0.751953 2.06673 0.751953 4.61616C0.751953 7.1656 2.8188 9.23233 5.36823 9.23233Z" fill="#45B29D"/>
<path d="M72.1934 9.23233C74.7428 9.23233 76.8094 7.1656 76.8094 4.61616C76.8094 2.06673 74.7428 0 72.1934 0C69.644 0 67.5771 2.06673 67.5771 4.61616C67.5771 7.1656 69.644 9.23233 72.1934 9.23233Z" fill="#69A5C9"/>
<path d="M139.015 9.23233C141.565 9.23233 143.631 7.1656 143.631 4.61616C143.631 2.06673 141.565 0 139.015 0C136.466 0 134.399 2.06673 134.399 4.61616C134.399 7.1656 136.466 9.23233 139.015 9.23233Z" fill="#69A5C9"/>
<path d="M205.835 9.23233C208.385 9.23233 210.452 7.1656 210.452 4.61616C210.452 2.06673 208.385 0 205.835 0C203.286 0 201.219 2.06673 201.219 4.61616C201.219 7.1656 203.286 9.23233 205.835 9.23233Z" fill="#45B29D"/>
<path d="M272.657 9.23233C275.207 9.23233 277.274 7.1656 277.274 4.61616C277.274 2.06673 275.207 0 272.657 0C270.108 0 268.041 2.06673 268.041 4.61616C268.041 7.1656 270.108 9.23233 272.657 9.23233Z" fill="#69A5C9"/>
<path d="M339.48 9.23233C342.029 9.23233 344.096 7.1656 344.096 4.61616C344.096 2.06673 342.029 0 339.48 0C336.93 0 334.863 2.06673 334.863 4.61616C334.863 7.1656 336.93 9.23233 339.48 9.23233Z" fill="#69A5C9"/>
<path d="M410.921 4.61616C410.921 7.1664 408.855 9.23233 406.305 9.23233C403.754 9.23233 401.688 7.1664 401.688 4.61616C401.688 2.06592 403.754 0 406.305 0C408.851 0 410.921 2.06592 410.921 4.61616Z" fill="#69A5C9"/>
<path d="M473.124 9.23233C475.674 9.23233 477.741 7.1656 477.741 4.61616C477.741 2.06673 475.674 0 473.124 0C470.575 0 468.508 2.06673 468.508 4.61616C468.508 7.1656 470.575 9.23233 473.124 9.23233Z" fill="#69A5C9"/>
<path d="M539.946 9.23233C542.496 9.23233 544.563 7.1656 544.563 4.61616C544.563 2.06673 542.496 0 539.946 0C537.397 0 535.33 2.06673 535.33 4.61616C535.33 7.1656 537.397 9.23233 539.946 9.23233Z" fill="#69A5C9"/>
<path d="M5.36823 54.1494C7.91767 54.1494 9.98428 52.0827 9.98428 49.5332C9.98428 46.9838 7.91767 44.9171 5.36823 44.9171C2.8188 44.9171 0.751953 46.9838 0.751953 49.5332C0.751953 52.0827 2.8188 54.1494 5.36823 54.1494Z" fill="#69A5C9"/>
<path d="M72.1934 54.1494C74.7428 54.1494 76.8094 52.0827 76.8094 49.5333C76.8094 46.9838 74.7428 44.9171 72.1934 44.9171C69.644 44.9171 67.5771 46.9838 67.5771 49.5333C67.5771 52.0827 69.644 54.1494 72.1934 54.1494Z" fill="#69A5C9"/>
<path d="M139.015 54.1494C141.565 54.1494 143.631 52.0827 143.631 49.5333C143.631 46.9838 141.565 44.9171 139.015 44.9171C136.466 44.9171 134.399 46.9838 134.399 49.5333C134.399 52.0827 136.466 54.1494 139.015 54.1494Z" fill="#69A5C9"/>
<path d="M205.835 54.1494C208.385 54.1494 210.452 52.0827 210.452 49.5333C210.452 46.9838 208.385 44.9171 205.835 44.9171C203.286 44.9171 201.219 46.9838 201.219 49.5333C201.219 52.0827 203.286 54.1494 205.835 54.1494Z" fill="#69A5C9"/>
<path d="M272.657 54.1494C275.207 54.1494 277.274 52.0827 277.274 49.5333C277.274 46.9838 275.207 44.9171 272.657 44.9171C270.108 44.9171 268.041 46.9838 268.041 49.5333C268.041 52.0827 270.108 54.1494 272.657 54.1494Z" fill="#69A5C9"/>
<path d="M339.48 54.1494C342.029 54.1494 344.096 52.0827 344.096 49.5333C344.096 46.9838 342.029 44.9171 339.48 44.9171C336.93 44.9171 334.863 46.9838 334.863 49.5333C334.863 52.0827 336.93 54.1494 339.48 54.1494Z" fill="#45B29D"/>
<path d="M410.921 49.5333C410.921 52.0835 408.855 54.1494 406.305 54.1494C403.754 54.1494 401.688 52.0835 401.688 49.5333C401.688 46.983 403.754 44.9171 406.305 44.9171C408.851 44.9171 410.921 46.983 410.921 49.5333Z" fill="#69A5C9"/>
<path d="M473.124 54.1494C475.674 54.1494 477.741 52.0827 477.741 49.5333C477.741 46.9838 475.674 44.9171 473.124 44.9171C470.575 44.9171 468.508 46.9838 468.508 49.5333C468.508 52.0827 470.575 54.1494 473.124 54.1494Z" fill="#69A5C9"/>
<path d="M539.946 54.1494C542.496 54.1494 544.563 52.0827 544.563 49.5333C544.563 46.9838 542.496 44.9171 539.946 44.9171C537.397 44.9171 535.33 46.9838 535.33 49.5333C535.33 52.0827 537.397 54.1494 539.946 54.1494Z" fill="#45B29D"/>
<path d="M5.36823 99.0654C7.91767 99.0654 9.98428 96.9987 9.98428 94.4492C9.98428 91.8998 7.91767 89.8331 5.36823 89.8331C2.8188 89.8331 0.751953 91.8998 0.751953 94.4492C0.751953 96.9987 2.8188 99.0654 5.36823 99.0654Z" fill="#69A5C9"/>
<path d="M72.1934 99.0655C74.7428 99.0655 76.8094 96.9987 76.8094 94.4493C76.8094 91.8999 74.7428 89.8331 72.1934 89.8331C69.644 89.8331 67.5771 91.8999 67.5771 94.4493C67.5771 96.9987 69.644 99.0655 72.1934 99.0655Z" fill="#45B29D"/>
<path d="M139.015 99.0655C141.565 99.0655 143.631 96.9987 143.631 94.4493C143.631 91.8999 141.565 89.8331 139.015 89.8331C136.466 89.8331 134.399 91.8999 134.399 94.4493C134.399 96.9987 136.466 99.0655 139.015 99.0655Z" fill="#69A5C9"/>
<path d="M205.835 99.0655C208.385 99.0655 210.452 96.9987 210.452 94.4493C210.452 91.8999 208.385 89.8331 205.835 89.8331C203.286 89.8331 201.219 91.8999 201.219 94.4493C201.219 96.9987 203.286 99.0655 205.835 99.0655Z" fill="#69A5C9"/>
<path d="M272.657 99.0655C275.207 99.0655 277.274 96.9987 277.274 94.4493C277.274 91.8999 275.207 89.8331 272.657 89.8331C270.108 89.8331 268.041 91.8999 268.041 94.4493C268.041 96.9987 270.108 99.0655 272.657 99.0655Z" fill="#69A5C9"/>
<path d="M339.48 99.0655C342.029 99.0655 344.096 96.9987 344.096 94.4493C344.096 91.8999 342.029 89.8331 339.48 89.8331C336.93 89.8331 334.863 91.8999 334.863 94.4493C334.863 96.9987 336.93 99.0655 339.48 99.0655Z" fill="#69A5C9"/>
<path d="M410.921 94.4493C410.921 96.9995 408.855 99.0655 406.305 99.0655C403.754 99.0655 401.688 96.9995 401.688 94.4493C401.688 91.8991 403.754 89.8331 406.305 89.8331C408.851 89.8331 410.921 91.8991 410.921 94.4493Z" fill="#45B29D"/>
<path d="M473.124 99.0655C475.674 99.0655 477.741 96.9987 477.741 94.4493C477.741 91.8999 475.674 89.8331 473.124 89.8331C470.575 89.8331 468.508 91.8999 468.508 94.4493C468.508 96.9987 470.575 99.0655 473.124 99.0655Z" fill="#69A5C9"/>
<path d="M539.946 99.0655C542.496 99.0655 544.563 96.9987 544.563 94.4493C544.563 91.8999 542.496 89.8331 539.946 89.8331C537.397 89.8331 535.33 91.8999 535.33 94.4493C535.33 96.9987 537.397 99.0655 539.946 99.0655Z" fill="#69A5C9"/>
<path d="M5.36823 143.982C7.91767 143.982 9.98428 141.916 9.98428 139.366C9.98428 136.817 7.91767 134.75 5.36823 134.75C2.8188 134.75 0.751953 136.817 0.751953 139.366C0.751953 141.916 2.8188 143.982 5.36823 143.982Z" fill="#69A5C9"/>
<path d="M72.1934 143.983C74.7428 143.983 76.8094 141.916 76.8094 139.366C76.8094 136.817 74.7428 134.75 72.1934 134.75C69.644 134.75 67.5771 136.817 67.5771 139.366C67.5771 141.916 69.644 143.983 72.1934 143.983Z" fill="#69A5C9"/>
<path d="M139.015 143.983C141.565 143.983 143.631 141.916 143.631 139.366C143.631 136.817 141.565 134.75 139.015 134.75C136.466 134.75 134.399 136.817 134.399 139.366C134.399 141.916 136.466 143.983 139.015 143.983Z" fill="#45B29D"/>
<path d="M205.835 143.983C208.385 143.983 210.452 141.916 210.452 139.366C210.452 136.817 208.385 134.75 205.835 134.75C203.286 134.75 201.219 136.817 201.219 139.366C201.219 141.916 203.286 143.983 205.835 143.983Z" fill="#69A5C9"/>
<path d="M272.657 143.983C275.207 143.983 277.274 141.916 277.274 139.366C277.274 136.817 275.207 134.75 272.657 134.75C270.108 134.75 268.041 136.817 268.041 139.366C268.041 141.916 270.108 143.983 272.657 143.983Z" fill="#45B29D"/>
<path d="M339.48 143.983C342.029 143.983 344.096 141.916 344.096 139.366C344.096 136.817 342.029 134.75 339.48 134.75C336.93 134.75 334.863 136.817 334.863 139.366C334.863 141.916 336.93 143.983 339.48 143.983Z" fill="#69A5C9"/>
<path d="M410.921 139.366C410.921 141.917 408.855 143.983 406.305 143.983C403.754 143.983 401.688 141.917 401.688 139.366C401.688 136.816 403.754 134.75 406.305 134.75C408.851 134.75 410.921 136.816 410.921 139.366Z" fill="#69A5C9"/>
<path d="M473.124 143.983C475.674 143.983 477.741 141.916 477.741 139.366C477.741 136.817 475.674 134.75 473.124 134.75C470.575 134.75 468.508 136.817 468.508 139.366C468.508 141.916 470.575 143.983 473.124 143.983Z" fill="#69A5C9"/>
<path d="M539.946 143.983C542.496 143.983 544.563 141.916 544.563 139.366C544.563 136.817 542.496 134.75 539.946 134.75C537.397 134.75 535.33 136.817 535.33 139.366C535.33 141.916 537.397 143.983 539.946 143.983Z" fill="#69A5C9"/>
<path d="M5.36823 188.899C7.91767 188.899 9.98428 186.832 9.98428 184.283C9.98428 181.733 7.91767 179.667 5.36823 179.667C2.8188 179.667 0.751953 181.733 0.751953 184.283C0.751953 186.832 2.8188 188.899 5.36823 188.899Z" fill="#69A5C9"/>
<path d="M72.1934 188.899C74.7428 188.899 76.8094 186.832 76.8094 184.283C76.8094 181.733 74.7428 179.667 72.1934 179.667C69.644 179.667 67.5771 181.733 67.5771 184.283C67.5771 186.832 69.644 188.899 72.1934 188.899Z" fill="#69A5C9"/>
<path d="M139.015 188.899C141.565 188.899 143.631 186.832 143.631 184.283C143.631 181.733 141.565 179.667 139.015 179.667C136.466 179.667 134.399 181.733 134.399 184.283C134.399 186.832 136.466 188.899 139.015 188.899Z" fill="#69A5C9"/>
<path d="M205.835 188.899C208.385 188.899 210.452 186.832 210.452 184.283C210.452 181.733 208.385 179.667 205.835 179.667C203.286 179.667 201.219 181.733 201.219 184.283C201.219 186.832 203.286 188.899 205.835 188.899Z" fill="#69A5C9"/>
<path d="M272.657 188.899C275.207 188.899 277.274 186.832 277.274 184.283C277.274 181.733 275.207 179.667 272.657 179.667C270.108 179.667 268.041 181.733 268.041 184.283C268.041 186.832 270.108 188.899 272.657 188.899Z" fill="#69A5C9"/>
<path d="M339.48 188.899C342.029 188.899 344.096 186.832 344.096 184.283C344.096 181.733 342.029 179.667 339.48 179.667C336.93 179.667 334.863 181.733 334.863 184.283C334.863 186.832 336.93 188.899 339.48 188.899Z" fill="#69A5C9"/>
<path d="M410.921 184.283C410.921 186.833 408.855 188.899 406.305 188.899C403.754 188.899 401.688 186.833 401.688 184.283C401.688 181.732 403.754 179.667 406.305 179.667C408.851 179.667 410.921 181.732 410.921 184.283Z" fill="#69A5C9"/>
<path d="M473.124 188.899C475.674 188.899 477.741 186.832 477.741 184.283C477.741 181.733 475.674 179.667 473.124 179.667C470.575 179.667 468.508 181.733 468.508 184.283C468.508 186.832 470.575 188.899 473.124 188.899Z" fill="#45B29D"/>
<path d="M539.946 188.899C542.496 188.899 544.563 186.832 544.563 184.283C544.563 181.733 542.496 179.667 539.946 179.667C537.397 179.667 535.33 181.733 535.33 184.283C535.33 186.832 537.397 188.899 539.946 188.899Z" fill="#45B29D"/>
</g>
</svg>
